<?xml version="1.0" encoding="utf-8"?>
<!-- Generator: Adobe Illustrator 21.0.0, SVG Export Plug-In . SVG Version: 6.00 Build 0)  -->
<svg version="1.1" id="Layer_1" xmlns="http://www.w3.org/2000/svg" xmlns:xlink="http://www.w3.org/1999/xlink" x="0px" y="0px"
	 viewBox="0 0 130 130" style="enable-background:new 0 0 130 130;" xml:space="preserve">
<style type="text/css">
	.st0{fill:#F34213;}
</style>
<path class="st0" d="M25,101.3V28.7c0-2,1.7-3.7,3.7-3.7h32.4v13.2c0,6.1,5,11.1,11.1,11.1h13.2v10.9h7.4V44L66.4,17.5H28.7
	c-6.1,0-11.1,5-11.1,11.1v72.7c0,6.1,5,11.1,11.1,11.1h49.1V105H28.7C26.6,105,25,103.4,25,101.3z M68.5,38.1v-8l11.7,11.7h-8
	C70.2,41.8,68.5,40.2,68.5,38.1z M100.6,67.8c1.2-1.7,3.1-2.8,5.3-2.8c3.6,0,6.5,2.9,6.5,6.5S109.5,78,106,78
	c-2.2,0-4.2-1.1-5.3-2.8H61c-1.2,1.7-3.1,2.8-5.3,2.8c-3.6,0-6.5-2.9-6.5-6.5s2.9-6.5,6.5-6.5c2.2,0,4.2,1.1,5.3,2.8H100.6z
	 M112.4,105.6c0,3.6-2.9,6.5-6.5,6.5c-2.2,0-4.2-1.1-5.3-2.8H85.4V92.1H70.7c-1.2,1.6-3.1,2.6-5.2,2.6c-3.6,0-6.5-2.9-6.5-6.5
	s2.9-6.5,6.5-6.5c2.3,0,4.3,1.2,5.4,3h21.8v17.2h7.8c1.2-1.7,3.1-2.8,5.3-2.8C109.5,99.1,112.4,102,112.4,105.6z"/>
</svg>
