<?xml version="1.0" encoding="utf-8"?>
<!-- Generator: Adobe Illustrator 21.0.0, SVG Export Plug-In . SVG Version: 6.00 Build 0)  -->
<svg version="1.1" id="Layer_1" xmlns="http://www.w3.org/2000/svg" xmlns:xlink="http://www.w3.org/1999/xlink" x="0px" y="0px"
	 viewBox="0 0 130 130" style="enable-background:new 0 0 130 130;" xml:space="preserve">
<style type="text/css">
	.st0{fill:#F34213;}
</style>
<g>
	<g>
		<g>
			<path class="st0" d="M91,55.6L61.6,81.5c0,0-0.1,0.1-0.1,0.1c-1,0.9-1.5,2.2-1.5,3.6c0,2.8,2.3,5,5,5c1.3,0,2.6-0.5,3.7-1.6
				l25.9-29.5c0.9-1,0.8-2.5-0.1-3.4C93.5,54.7,92,54.7,91,55.6z"/>
			<path class="st0" d="M65,24.7c-33.3,0-60.4,27.1-60.4,60.4c0,6.2,1,12.4,2.9,18.4c0.3,1,1.3,1.7,2.4,1.7h110.3
				c1.1,0,2.1-0.7,2.4-1.7c1.9-6,2.9-12.1,2.9-18.4C125.4,51.8,98.3,24.7,65,24.7z M112.8,87.6h7.4c-0.2,4.3-0.8,8.5-1.9,12.6H11.7
				c-1.2-4.1-1.7-8.3-1.9-12.6h7.4c1.4,0,2.5-1.1,2.5-2.5c0-1.4-1.1-2.5-2.5-2.5H9.8c0.4-8.2,2.5-16,6.1-22.9l6.4,3.7
				c0.4,0.2,0.8,0.3,1.3,0.3c0.9,0,1.7-0.4,2.2-1.3c0.7-1.2,0.3-2.7-0.9-3.4l-6.4-3.7c4.3-6.7,10.1-12.5,16.8-16.8l3.7,6.4
				c0.5,0.8,1.3,1.3,2.2,1.3c0.4,0,0.9-0.1,1.3-0.3c1.2-0.7,1.6-2.2,0.9-3.4L39.5,36c6.9-3.6,14.7-5.7,22.9-6.1v7.4
				c0,1.4,1.1,2.5,2.5,2.5s2.5-1.1,2.5-2.5v-7.4c8.2,0.4,16,2.5,22.9,6.1l-3.7,6.4c-0.7,1.2-0.3,2.7,0.9,3.4
				c0.4,0.2,0.8,0.3,1.3,0.3c0.9,0,1.7-0.5,2.2-1.3l3.7-6.4c6.7,4.3,12.5,10,16.8,16.8l-6.4,3.7c-1.2,0.7-1.6,2.2-0.9,3.4
				c0.5,0.8,1.3,1.3,2.2,1.3c0.4,0,0.9-0.1,1.3-0.3l6.4-3.7c3.6,6.9,5.7,14.7,6.1,22.9h-7.4c-1.4,0-2.5,1.1-2.5,2.5
				C110.3,86.5,111.4,87.6,112.8,87.6z"/>
		</g>
	</g>
</g>
</svg>
