<?xml version="1.0" encoding="utf-8"?>
<!-- Generator: Adobe Illustrator 21.0.0, SVG Export Plug-In . SVG Version: 6.00 Build 0)  -->
<svg version="1.1" id="Layer_1" xmlns="http://www.w3.org/2000/svg" xmlns:xlink="http://www.w3.org/1999/xlink" x="0px" y="0px"
	 viewBox="0 0 130 130" style="enable-background:new 0 0 130 130;" xml:space="preserve">
<style type="text/css">
	.st0{fill:#F34213;}
</style>
<g>
	<path class="st0" d="M22.6,108.3c11.1,10.6,26.3,17.1,43,16.6c32-0.8,58-27.1,58.5-59.1C124.5,32.3,97.5,5,64.1,5
		c-17.2,0-32.6,7.2-43.6,18.8c-0.9,1-0.9,2.5,0,3.5l0,0c1,1,2.6,1,3.6,0c10-10.6,24.2-17.2,40-17.2c31.2,0,56.4,26,54.9,57.6
		c-1.3,28.1-24.1,51-52.2,52.3c-15.9,0.8-30.3-5.2-40.8-15.2c-1.1-1.1-2.9-0.9-3.8,0.4h0C21.5,106.1,21.7,107.5,22.6,108.3z"/>
	<g>
		<rect x="41.8" y="37" class="st0" width="26" height="26"/>
		<rect x="71.8" y="67" class="st0" width="26" height="26"/>
		<rect x="41.6" y="67" class="st0" width="26" height="26"/>
		<path class="st0" d="M71.8,37v26h26V37H71.8z M96.5,61.8H73.1V38.3h23.4V61.8z"/>
	</g>
	<path class="st0" d="M33.8,63.8l-24.3-24c-1.3-1.3-3.6-0.4-3.6,1.5v48c0,1.9,2.3,2.8,3.6,1.5l24.3-24C34.7,66,34.7,64.7,33.8,63.8z
		 M29.1,66.8L12.3,83.4c-1.3,1.3-3.6,0.4-3.6-1.5V48.8c0-1.9,2.3-2.8,3.6-1.5l16.7,16.5C29.9,64.7,29.9,66,29.1,66.8z"/>
</g>
</svg>
