<?xml version="1.0" encoding="utf-8"?>
<!-- Generator: Adobe Illustrator 21.0.0, SVG Export Plug-In . SVG Version: 6.00 Build 0)  -->
<svg version="1.1" id="Layer_1" xmlns="http://www.w3.org/2000/svg" xmlns:xlink="http://www.w3.org/1999/xlink" x="0px" y="0px"
	 viewBox="0 0 130 130" style="enable-background:new 0 0 130 130;" xml:space="preserve">
<style type="text/css">
	.st0{fill:#F34213;}
</style>
<g>
	<path class="st0" d="M103.4,21.7C92.3,11,77.1,4.6,60.4,5c-32,0.8-58,27.1-58.5,59.1C1.5,97.7,28.5,125,61.9,125
		c17.2,0,32.6-7.2,43.6-18.8c0.9-1,0.9-2.5,0-3.5v0c-1-1-2.6-1-3.6,0c-10,10.6-24.2,17.2-40,17.2C30.7,120,5.5,94,7,62.4
		c1.3-28.1,24.1-51,52.2-52.3C75,9.3,89.5,15.2,100,25.3c1.1,1.1,2.9,0.9,3.8-0.4v0C104.5,23.9,104.3,22.5,103.4,21.7z"/>
	<g>
		<rect x="30.8" y="36" class="st0" width="26" height="26"/>
		<rect x="60.8" y="66" class="st0" width="26" height="26"/>
		<rect x="30.6" y="66" class="st0" width="26" height="26"/>
		<path class="st0" d="M60.8,36v26h26V36H60.8z M85.5,60.8H62.1V37.3h23.4V60.8z"/>
	</g>
	<path class="st0" d="M127.4,63.2l-24.3-24c-1.3-1.3-3.6-0.4-3.6,1.5v48c0,1.9,2.3,2.8,3.6,1.5l24.3-24
		C128.3,65.3,128.3,64,127.4,63.2z M122.7,66.2l-16.7,16.5c-1.3,1.3-3.6,0.4-3.6-1.5V48.1c0-1.9,2.3-2.8,3.6-1.5l16.7,16.5
		C123.5,64,123.5,65.3,122.7,66.2z"/>
</g>
</svg>
