<?xml version="1.0" encoding="utf-8"?>
<!-- Generator: Adobe Illustrator 21.0.0, SVG Export Plug-In . SVG Version: 6.00 Build 0)  -->
<svg version="1.1" id="Layer_1" xmlns="http://www.w3.org/2000/svg" xmlns:xlink="http://www.w3.org/1999/xlink" x="0px" y="0px"
	 viewBox="0 0 130 130" style="enable-background:new 0 0 130 130;" xml:space="preserve">
<style type="text/css">
	.st0{fill:#F34213;}
</style>
<path class="st0" d="M62,55.8l27.6,27.5l-5.5,5.5L56.5,61.3c-7,8.6-7.6,17.4-8.1,19.5h-7.2v-7c0-5.8,1.9-15.4,6-21.6l-5-5l5.5-5.5
	l5.1,5.1c6.4-3.9,16.1-5.6,22.2-5.6c0,0,0.1,0,0.1,0h7.4v7C80.8,48.5,71.3,48.5,62,55.8z M104.8,45.5v7.8H115v7.8h-10.2v7.8H115v7.8
	h-10.2v7.8H115v7.8h-10.2v0.8c0,6.5-5.3,11.7-11.7,11.7h-0.8V115h-7.8v-10.2h-7.8V115h-7.8v-10.2h-7.8V115h-7.8v-10.2h-7.8V115h-7.8
	v-10.2h-0.8c-6.5,0-11.7-5.3-11.7-11.7v-0.8H15v-7.8h10.2v-7.8H15v-7.8h10.2v-7.8H15v-7.8h10.2v-7.8H15v-7.8h10.2v-0.8
	c0-6.5,5.3-11.7,11.7-11.7h0.8V15h7.8v10.2h7.8V15h7.8v10.2h7.8V15h7.8v10.2h7.8V15h7.8v10.2h0.8c6.5,0,11.7,5.3,11.7,11.7v0.8H115
	v7.8H104.8z M97,36.9c0-2.2-1.8-3.9-3.9-3.9H36.9c-2.2,0-3.9,1.8-3.9,3.9v56.3c0,2.2,1.8,3.9,3.9,3.9h56.3c2.2,0,3.9-1.8,3.9-3.9
	V36.9z"/>
</svg>
